<?xml version="1.0" standalone="no"?><!DOCTYPE svg PUBLIC "-//W3C//DTD SVG 1.1//EN" "http://www.w3.org/Graphics/SVG/1.1/DTD/svg11.dtd"><svg t="1703560210891" class="icon" viewBox="0 0 1024 1024" version="1.1" xmlns="http://www.w3.org/2000/svg" p-id="10265" xmlns:xlink="http://www.w3.org/1999/xlink" width="32" height="32"><path d="M512 512m-512 0a512 512 0 1 0 1024 0 512 512 0 1 0-1024 0Z" fill="#6F9EF6" p-id="10266"></path><path d="M512 810.666667a298.666667 298.666667 0 1 1 0-597.333334 298.666667 298.666667 0 0 1 0 597.333334z m0-560a261.333333 261.333333 0 1 0 0 522.666666 261.333333 261.333333 0 0 0 0-522.666666z m133.76 298.666666H490.24c-8.576 0-15.573333-7.68-15.573333-17.237333V342.570667c0-9.557333 6.954667-17.237333 15.573333-17.237334 8.576 0 15.530667 7.68 15.530667 17.237334v172.288h139.989333c8.576 0 15.573333 7.68 15.573333 17.237333 0 9.557333-6.954667 17.237333-15.573333 17.237333z" fill="#FFFFFF" p-id="10267"></path></svg>